<svg width="700" height="700" viewBox="0 0 700 700" fill="none" xmlns="http://www.w3.org/2000/svg">
<circle cx="350" cy="350" r="350" fill="#D9D9D9"/>
<circle cx="350" cy="350" r="340" stroke="#22C55E" stroke-width="20"/>
<path fill-rule="evenodd" clip-rule="evenodd" d="M187.5 368C185.1 293.6 220.167 257.667 238 249C231.5 256.5 223.5 298 225.5 313.5C227.1 325.9 238.833 333.667 244.5 336C248.167 334.5 257 331.9 263 333.5C269 335.1 271.167 339.167 271.5 341H369.5L390 336L599 334.5V378L385 377L369.5 372H271.5C269.9 377.6 266 379.5 263 379.5C257 375.5 245 376.5 242 379.5C238.5 385.5 238.8 394.9 242 396.5C245.2 398.1 252 401.5 254.5 405C255.5 415.5 255.7 438.2 254.5 443C253.3 447.8 249.333 448.333 247.5 448C231.5 448.167 198.8 448.4 196 448C193.2 447.6 191.167 444.5 190.5 443V405C194.833 403.833 203.3 398.5 202.5 386.5C201.7 374.5 192.167 369.167 187.5 368Z" fill="#22C55E"/>
<path fill-rule="evenodd" clip-rule="evenodd" d="M47 336L196 225L219.5 244.5C171.5 281.3 170.5 351.5 176 382C184.167 381.167 198.5 380.9 190.5 386.5C182.5 392.1 179.167 398.833 178.5 401.5V448H88V336H47Z" fill="black"/>
<path fill-rule="evenodd" clip-rule="evenodd" d="M187.5 368C185.1 293.6 220.167 257.667 238 249C231.5 256.5 223.5 298 225.5 313.5C227.1 325.9 238.833 333.667 244.5 336C248.167 334.5 257 331.9 263 333.5C269 335.1 271.167 339.167 271.5 341H369.5L390 336L599 334.5V378L385 377L369.5 372H271.5C269.9 377.6 266 379.5 263 379.5C257 375.5 245 376.5 242 379.5C238.5 385.5 238.8 394.9 242 396.5C245.2 398.1 252 401.5 254.5 405C255.5 415.5 255.7 438.2 254.5 443C253.3 447.8 249.333 448.333 247.5 448C231.5 448.167 198.8 448.4 196 448C193.2 447.6 191.167 444.5 190.5 443V405C194.833 403.833 203.3 398.5 202.5 386.5C201.7 374.5 192.167 369.167 187.5 368Z" stroke="black"/>
<path fill-rule="evenodd" clip-rule="evenodd" d="M47 336L196 225L219.5 244.5C171.5 281.3 170.5 351.5 176 382C184.167 381.167 198.5 380.9 190.5 386.5C182.5 392.1 179.167 398.833 178.5 401.5V448H88V336H47Z" stroke="black"/>
<path d="M295.972 309H258.188L307.264 163.545H354.068L403.145 309H365.361L331.199 200.193H330.062L295.972 309ZM290.929 251.756H369.906V278.46H290.929V251.756ZM453.962 163.545V309H418.805V163.545H453.962ZM554.654 207.153C554.181 201.945 552.074 197.897 548.333 195.009C544.64 192.073 539.361 190.605 532.495 190.605C527.95 190.605 524.162 191.197 521.131 192.381C518.101 193.564 515.828 195.198 514.313 197.281C512.798 199.317 512.017 201.661 511.969 204.312C511.875 206.491 512.301 208.408 513.248 210.065C514.242 211.723 515.663 213.19 517.509 214.469C519.403 215.7 521.676 216.789 524.327 217.736C526.979 218.683 529.962 219.511 533.276 220.222L545.776 223.062C552.973 224.625 559.318 226.708 564.81 229.312C570.35 231.917 574.99 235.018 578.731 238.616C582.519 242.215 585.383 246.358 587.325 251.045C589.266 255.733 590.26 260.989 590.308 266.812C590.26 275.998 587.94 283.882 583.347 290.463C578.754 297.045 572.149 302.087 563.532 305.591C554.962 309.095 544.616 310.847 532.495 310.847C520.326 310.847 509.72 309.024 500.677 305.378C491.633 301.732 484.602 296.192 479.583 288.759C474.564 281.325 471.984 271.926 471.842 260.562H505.506C505.79 265.25 507.045 269.156 509.271 272.281C511.496 275.406 514.55 277.774 518.433 279.384C522.362 280.993 526.908 281.798 532.069 281.798C536.804 281.798 540.828 281.159 544.143 279.881C547.505 278.602 550.085 276.827 551.884 274.554C553.683 272.281 554.607 269.677 554.654 266.741C554.607 263.995 553.755 261.652 552.097 259.71C550.44 257.722 547.883 256.017 544.427 254.597C541.018 253.129 536.662 251.779 531.359 250.548L516.16 246.997C503.565 244.109 493.646 239.445 486.401 233.006C479.157 226.519 475.558 217.759 475.606 206.727C475.558 197.731 477.973 189.848 482.85 183.077C487.727 176.306 494.474 171.027 503.092 167.239C511.709 163.451 521.534 161.557 532.566 161.557C543.835 161.557 553.612 163.474 561.898 167.31C570.232 171.098 576.695 176.424 581.288 183.29C585.88 190.155 588.224 198.11 588.319 207.153H554.654Z" fill="black"/>
<path d="M262.857 522V398.364H314.413C323.669 398.364 331.417 399.672 337.655 402.288C343.933 404.904 348.642 408.566 351.781 413.275C354.961 417.984 356.55 423.437 356.55 429.635C356.55 434.344 355.564 438.549 353.592 442.252C351.62 445.915 348.904 448.953 345.442 451.368C341.981 453.783 337.977 455.473 333.429 456.439V457.646C338.42 457.888 343.028 459.236 347.254 461.691C351.52 464.146 354.941 467.567 357.516 471.954C360.092 476.3 361.38 481.452 361.38 487.408C361.38 494.049 359.69 499.985 356.309 505.217C352.928 510.409 348.038 514.514 341.639 517.533C335.24 520.511 327.473 522 318.337 522H262.857ZM292.74 497.913H311.213C317.693 497.913 322.462 496.685 325.521 494.23C328.62 491.775 330.169 488.354 330.169 483.967C330.169 480.788 329.424 478.051 327.935 475.757C326.446 473.423 324.333 471.632 321.597 470.384C318.86 469.096 315.58 468.452 311.756 468.452H292.74V497.913ZM292.74 449.195H309.281C312.541 449.195 315.439 448.651 317.974 447.565C320.51 446.478 322.482 444.908 323.891 442.856C325.339 440.803 326.064 438.328 326.064 435.43C326.064 431.285 324.595 428.025 321.657 425.651C318.719 423.276 314.755 422.089 309.764 422.089H292.74V449.195ZM450.545 398.364H480.368V478.112C480.368 487.328 478.174 495.357 473.788 502.199C469.401 509 463.283 514.273 455.435 518.016C447.587 521.718 438.472 523.57 428.088 523.57C417.584 523.57 408.408 521.718 400.56 518.016C392.712 514.273 386.614 509 382.268 502.199C377.921 495.357 375.748 487.328 375.748 478.112V398.364H405.631V475.516C405.631 479.782 406.556 483.585 408.408 486.925C410.299 490.266 412.935 492.882 416.316 494.773C419.697 496.665 423.621 497.611 428.088 497.611C432.555 497.611 436.459 496.665 439.8 494.773C443.18 492.882 445.817 490.266 447.708 486.925C449.6 483.585 450.545 479.782 450.545 475.516V398.364ZM544.797 522H499.097V398.364H544.737C557.334 398.364 568.18 400.839 577.276 405.789C586.412 410.699 593.455 417.782 598.405 427.039C603.355 436.255 605.83 447.283 605.83 460.121C605.83 473 603.355 484.068 598.405 493.325C593.495 502.581 586.472 509.685 577.336 514.635C568.2 519.545 557.354 522 544.797 522ZM528.98 496.524H543.65C550.572 496.524 556.428 495.357 561.218 493.023C566.047 490.648 569.689 486.805 572.144 481.492C574.64 476.139 575.887 469.016 575.887 460.121C575.887 451.227 574.64 444.144 572.144 438.871C569.649 433.559 565.967 429.736 561.097 427.401C556.267 425.027 550.311 423.839 543.227 423.839H528.98V496.524Z" fill="black"/>
</svg>
